<?xml version="1.0" encoding="UTF-8"?>
<svg xmlns="http://www.w3.org/2000/svg" xmlns:xlink="http://www.w3.org/1999/xlink" width="3840pt" height="2160pt" viewBox="0 0 3840 2160" version="1.1">
<defs>
<g>
<symbol overflow="visible" id="glyph0-0">
<path style="stroke:none;" d="M 0.65625 2.359375 L 0.65625 -9.390625 L 7.328125 -9.390625 L 7.328125 2.359375 Z M 1.40625 1.609375 L 6.59375 1.609375 L 6.59375 -8.65625 L 1.40625 -8.65625 Z "/>
</symbol>
<symbol overflow="visible" id="glyph0-1">
<path style="stroke:none;" d="M 0.5625 0 L 0.5625 -0.78125 L 1.796875 -0.78125 L 1.796875 -8.921875 L 0.5625 -8.921875 L 0.5625 -9.71875 L 4.5625 -9.71875 L 7.34375 -3.484375 L 10.125 -9.71875 L 14.125 -9.71875 L 14.125 -8.921875 L 12.890625 -8.921875 L 12.890625 -0.78125 L 14.125 -0.78125 L 14.125 0 L 9.125 0 L 9.125 -0.78125 L 10.359375 -0.78125 L 10.359375 -8.203125 L 7.359375 -1.421875 L 5.703125 -1.421875 L 2.703125 -8.203125 L 2.703125 -0.78125 L 3.9375 -0.78125 L 3.9375 0 Z "/>
</symbol>
<symbol overflow="visible" id="glyph0-2">
<path style="stroke:none;" d="M 9.9375 -2.765625 C 9.675781 -1.765625 9.210938 -1.019531 8.546875 -0.53125 C 7.890625 -0.0507812 7 0.1875 5.875 0.1875 C 4.238281 0.1875 2.941406 -0.265625 1.984375 -1.171875 C 1.035156 -2.078125 0.5625 -3.300781 0.5625 -4.84375 C 0.5625 -6.394531 1.035156 -7.625 1.984375 -8.53125 C 2.941406 -9.4375 4.238281 -9.890625 5.875 -9.890625 C 6.445312 -9.890625 7.046875 -9.816406 7.671875 -9.671875 C 8.296875 -9.535156 8.960938 -9.328125 9.671875 -9.046875 L 9.671875 -6.671875 L 8.84375 -6.671875 C 8.664062 -7.484375 8.351562 -8.09375 7.90625 -8.5 C 7.46875 -8.90625 6.878906 -9.109375 6.140625 -9.109375 C 5.191406 -9.109375 4.488281 -8.757812 4.03125 -8.0625 C 3.570312 -7.363281 3.34375 -6.289062 3.34375 -4.84375 C 3.34375 -3.40625 3.570312 -2.335938 4.03125 -1.640625 C 4.488281 -0.941406 5.195312 -0.59375 6.15625 -0.59375 C 6.800781 -0.59375 7.328125 -0.769531 7.734375 -1.125 C 8.148438 -1.488281 8.453125 -2.035156 8.640625 -2.765625 Z "/>
</symbol>
<symbol overflow="visible" id="glyph0-3">
<path style="stroke:none;" d="M 0.625 0 L 0.625 -0.78125 L 1.875 -0.78125 L 1.875 -8.921875 L 0.625 -8.921875 L 0.625 -9.71875 L 6.15625 -9.71875 C 7.238281 -9.71875 8.097656 -9.457031 8.734375 -8.9375 C 9.367188 -8.425781 9.6875 -7.738281 9.6875 -6.875 C 9.6875 -6.007812 9.363281 -5.316406 8.71875 -4.796875 C 8.082031 -4.273438 7.226562 -4.015625 6.15625 -4.015625 L 4.375 -4.015625 L 4.375 -0.78125 L 5.9375 -0.78125 L 5.9375 0 Z M 4.375 -4.8125 L 5.109375 -4.8125 C 5.671875 -4.8125 6.117188 -5 6.453125 -5.375 C 6.785156 -5.75 6.953125 -6.25 6.953125 -6.875 C 6.953125 -7.5 6.785156 -7.992188 6.453125 -8.359375 C 6.117188 -8.734375 5.671875 -8.921875 5.109375 -8.921875 L 4.375 -8.921875 Z "/>
</symbol>
<symbol overflow="visible" id="glyph0-4">
<path style="stroke:none;" d=""/>
</symbol>
<symbol overflow="visible" id="glyph0-5">
<path style="stroke:none;" d="M 4.453125 -0.546875 C 4.941406 -0.546875 5.28125 -0.753906 5.46875 -1.171875 C 5.664062 -1.585938 5.765625 -2.351562 5.765625 -3.46875 C 5.765625 -4.570312 5.664062 -5.332031 5.46875 -5.75 C 5.28125 -6.164062 4.941406 -6.375 4.453125 -6.375 C 3.960938 -6.375 3.617188 -6.160156 3.421875 -5.734375 C 3.222656 -5.316406 3.125 -4.5625 3.125 -3.46875 C 3.125 -2.363281 3.222656 -1.597656 3.421875 -1.171875 C 3.617188 -0.753906 3.960938 -0.546875 4.453125 -0.546875 Z M 4.453125 0.1875 C 3.234375 0.1875 2.273438 -0.132812 1.578125 -0.78125 C 0.890625 -1.425781 0.546875 -2.320312 0.546875 -3.46875 C 0.546875 -4.601562 0.890625 -5.492188 1.578125 -6.140625 C 2.273438 -6.785156 3.234375 -7.109375 4.453125 -7.109375 C 5.671875 -7.109375 6.625 -6.785156 7.3125 -6.140625 C 8.007812 -5.492188 8.359375 -4.601562 8.359375 -3.46875 C 8.359375 -2.320312 8.007812 -1.425781 7.3125 -0.78125 C 6.625 -0.132812 5.671875 0.1875 4.453125 0.1875 Z "/>
</symbol>
<symbol overflow="visible" id="glyph0-6">
<path style="stroke:none;" d="M 5.71875 -3.125 L 5.71875 -3.796875 C 5.71875 -4.609375 5.613281 -5.191406 5.40625 -5.546875 C 5.195312 -5.910156 4.863281 -6.09375 4.40625 -6.09375 C 3.9375 -6.09375 3.601562 -5.898438 3.40625 -5.515625 C 3.21875 -5.140625 3.125 -4.457031 3.125 -3.46875 C 3.125 -2.46875 3.21875 -1.773438 3.40625 -1.390625 C 3.601562 -1.015625 3.9375 -0.828125 4.40625 -0.828125 C 4.863281 -0.828125 5.195312 -1.003906 5.40625 -1.359375 C 5.613281 -1.722656 5.71875 -2.3125 5.71875 -3.125 Z M 8.03125 -0.78125 L 9 -0.78125 L 9 0 L 5.71875 0 L 5.71875 -0.875 C 5.519531 -0.519531 5.253906 -0.253906 4.921875 -0.078125 C 4.597656 0.0976562 4.191406 0.1875 3.703125 0.1875 C 2.722656 0.1875 1.953125 -0.132812 1.390625 -0.78125 C 0.828125 -1.4375 0.546875 -2.332031 0.546875 -3.46875 C 0.546875 -4.601562 0.828125 -5.492188 1.390625 -6.140625 C 1.953125 -6.785156 2.722656 -7.109375 3.703125 -7.109375 C 4.191406 -7.109375 4.597656 -7.019531 4.921875 -6.84375 C 5.253906 -6.664062 5.519531 -6.398438 5.71875 -6.046875 L 5.71875 -9.34375 L 4.734375 -9.34375 L 4.734375 -10.125 L 8.03125 -10.125 Z "/>
</symbol>
<symbol overflow="visible" id="glyph0-7">
<path style="stroke:none;" d="M 5.34375 -3.90625 C 5.34375 -4.8125 5.253906 -5.445312 5.078125 -5.8125 C 4.910156 -6.1875 4.625 -6.375 4.21875 -6.375 C 3.820312 -6.375 3.539062 -6.191406 3.375 -5.828125 C 3.207031 -5.472656 3.125 -4.867188 3.125 -4.015625 L 3.125 -3.90625 Z M 7.875 -3.125 L 3.125 -3.125 L 3.125 -3.078125 C 3.125 -2.179688 3.253906 -1.535156 3.515625 -1.140625 C 3.785156 -0.742188 4.222656 -0.546875 4.828125 -0.546875 C 5.328125 -0.546875 5.726562 -0.675781 6.03125 -0.9375 C 6.34375 -1.207031 6.539062 -1.59375 6.625 -2.09375 L 7.703125 -2.09375 C 7.515625 -1.3125 7.144531 -0.734375 6.59375 -0.359375 C 6.039062 0.00390625 5.265625 0.1875 4.265625 0.1875 C 3.066406 0.1875 2.144531 -0.125 1.5 -0.75 C 0.863281 -1.382812 0.546875 -2.289062 0.546875 -3.46875 C 0.546875 -4.613281 0.875 -5.503906 1.53125 -6.140625 C 2.1875 -6.785156 3.097656 -7.109375 4.265625 -7.109375 C 5.410156 -7.109375 6.285156 -6.769531 6.890625 -6.09375 C 7.503906 -5.414062 7.832031 -4.425781 7.875 -3.125 Z "/>
</symbol>
<symbol overflow="visible" id="glyph0-8">
<path style="stroke:none;" d="M 3.734375 -0.78125 L 4.734375 -0.78125 L 4.734375 0 L 0.453125 0 L 0.453125 -0.78125 L 1.4375 -0.78125 L 1.4375 -9.34375 L 0.453125 -9.34375 L 0.453125 -10.125 L 3.734375 -10.125 Z "/>
</symbol>
<symbol overflow="visible" id="glyph0-9">
<path style="stroke:none;" d="M 0.453125 0 L 0.453125 -0.78125 L 1.4375 -0.78125 L 1.4375 -6.125 L 0.453125 -6.125 L 0.453125 -6.921875 L 3.734375 -6.921875 L 3.734375 -5.9375 C 4.015625 -6.351562 4.332031 -6.648438 4.6875 -6.828125 C 5.039062 -7.015625 5.492188 -7.109375 6.046875 -7.109375 C 6.816406 -7.109375 7.398438 -6.878906 7.796875 -6.421875 C 8.191406 -5.960938 8.390625 -5.289062 8.390625 -4.40625 L 8.390625 -0.78125 L 9.390625 -0.78125 L 9.390625 0 L 5.25 0 L 5.25 -0.78125 L 6.09375 -0.78125 L 6.09375 -4.46875 C 6.09375 -5.050781 6.015625 -5.457031 5.859375 -5.6875 C 5.710938 -5.914062 5.457031 -6.03125 5.09375 -6.03125 C 4.625 -6.03125 4.28125 -5.859375 4.0625 -5.515625 C 3.84375 -5.171875 3.734375 -4.628906 3.734375 -3.890625 L 3.734375 -0.78125 L 4.59375 -0.78125 L 4.59375 0 Z "/>
</symbol>
<symbol overflow="visible" id="glyph0-10">
<path style="stroke:none;" d="M 1.328125 -6.125 L 0.3125 -6.125 L 0.3125 -6.921875 L 1.328125 -6.921875 L 1.328125 -9.0625 L 3.625 -9.0625 L 3.625 -6.921875 L 5.546875 -6.921875 L 5.546875 -6.125 L 3.625 -6.125 L 3.625 -1.890625 C 3.625 -1.285156 3.671875 -0.910156 3.765625 -0.765625 C 3.859375 -0.617188 4.03125 -0.546875 4.28125 -0.546875 C 4.5625 -0.546875 4.769531 -0.640625 4.90625 -0.828125 C 5.039062 -1.015625 5.113281 -1.300781 5.125 -1.6875 L 6.09375 -1.6875 C 6.050781 -1 5.859375 -0.515625 5.515625 -0.234375 C 5.179688 0.046875 4.597656 0.1875 3.765625 0.1875 C 2.816406 0.1875 2.171875 0.0390625 1.828125 -0.25 C 1.492188 -0.550781 1.328125 -1.097656 1.328125 -1.890625 Z "/>
</symbol>
<symbol overflow="visible" id="glyph0-11">
<path style="stroke:none;" d="M 4.671875 -4.40625 L 5.90625 -6.125 L 5.046875 -6.125 L 5.046875 -6.921875 L 7.75 -6.921875 L 7.75 -6.125 L 6.828125 -6.125 L 5.0625 -3.65625 L 7.125 -0.78125 L 8.03125 -0.78125 L 8.03125 0 L 3.640625 0 L 3.640625 -0.78125 L 4.53125 -0.78125 L 3.234375 -2.609375 L 1.921875 -0.78125 L 2.84375 -0.78125 L 2.84375 0 L 0 0 L 0 -0.78125 L 0.984375 -0.78125 L 2.828125 -3.375 L 0.84375 -6.125 L 0.0625 -6.125 L 0.0625 -6.921875 L 4.28125 -6.921875 L 4.28125 -6.125 L 3.453125 -6.125 Z "/>
</symbol>
<symbol overflow="visible" id="glyph0-12">
<path style="stroke:none;" d="M 7.15625 -7 L 7.15625 -4.9375 L 6.421875 -4.9375 C 6.398438 -5.300781 6.300781 -5.570312 6.125 -5.75 C 5.945312 -5.9375 5.695312 -6.03125 5.375 -6.03125 C 4.863281 -6.03125 4.460938 -5.804688 4.171875 -5.359375 C 3.878906 -4.921875 3.734375 -4.304688 3.734375 -3.515625 L 3.734375 -0.78125 L 5 -0.78125 L 5 0 L 0.453125 0 L 0.453125 -0.78125 L 1.4375 -0.78125 L 1.4375 -6.125 L 0.390625 -6.125 L 0.390625 -6.921875 L 3.734375 -6.921875 L 3.734375 -5.6875 C 3.960938 -6.164062 4.257812 -6.519531 4.625 -6.75 C 5 -6.988281 5.457031 -7.109375 6 -7.109375 C 6.132812 -7.109375 6.296875 -7.097656 6.484375 -7.078125 C 6.679688 -7.054688 6.90625 -7.03125 7.15625 -7 Z "/>
</symbol>
<symbol overflow="visible" id="glyph0-13">
<path style="stroke:none;" d="M 7.515625 -2.15625 C 7.347656 -1.363281 7.007812 -0.773438 6.5 -0.390625 C 5.988281 -0.00390625 5.296875 0.1875 4.421875 0.1875 C 3.191406 0.1875 2.238281 -0.128906 1.5625 -0.765625 C 0.882812 -1.398438 0.546875 -2.300781 0.546875 -3.46875 C 0.546875 -4.613281 0.878906 -5.503906 1.546875 -6.140625 C 2.210938 -6.785156 3.140625 -7.109375 4.328125 -7.109375 C 4.816406 -7.109375 5.304688 -7.0625 5.796875 -6.96875 C 6.285156 -6.875 6.78125 -6.738281 7.28125 -6.5625 L 7.28125 -4.640625 L 6.5625 -4.640625 C 6.488281 -5.222656 6.316406 -5.65625 6.046875 -5.9375 C 5.773438 -6.226562 5.390625 -6.375 4.890625 -6.375 C 4.253906 -6.375 3.800781 -6.15625 3.53125 -5.71875 C 3.257812 -5.28125 3.125 -4.53125 3.125 -3.46875 C 3.125 -2.414062 3.253906 -1.664062 3.515625 -1.21875 C 3.773438 -0.769531 4.207031 -0.546875 4.8125 -0.546875 C 5.269531 -0.546875 5.640625 -0.679688 5.921875 -0.953125 C 6.203125 -1.234375 6.375 -1.632812 6.4375 -2.15625 Z "/>
</symbol>
</g>
</defs>
<g id="surface1">
<g style="fill:rgb(75.686275%,37.254902%,23.529412%);fill-opacity:1;">
  <use xlink:href="#glyph0-1" x="30" y="32.519531"/>
  <use xlink:href="#glyph0-2" x="45" y="32.519531"/>
  <use xlink:href="#glyph0-3" x="56" y="32.519531"/>
  <use xlink:href="#glyph0-4" x="66" y="32.519531"/>
  <use xlink:href="#glyph0-1" x="71" y="32.519531"/>
  <use xlink:href="#glyph0-5" x="86" y="32.519531"/>
  <use xlink:href="#glyph0-6" x="95" y="32.519531"/>
  <use xlink:href="#glyph0-7" x="104" y="32.519531"/>
  <use xlink:href="#glyph0-8" x="112" y="32.519531"/>
  <use xlink:href="#glyph0-4" x="117" y="32.519531"/>
  <use xlink:href="#glyph0-2" x="122" y="32.519531"/>
  <use xlink:href="#glyph0-5" x="133" y="32.519531"/>
  <use xlink:href="#glyph0-9" x="142" y="32.519531"/>
  <use xlink:href="#glyph0-10" x="152" y="32.519531"/>
  <use xlink:href="#glyph0-7" x="158" y="32.519531"/>
  <use xlink:href="#glyph0-11" x="166" y="32.519531"/>
  <use xlink:href="#glyph0-10" x="174" y="32.519531"/>
  <use xlink:href="#glyph0-4" x="180" y="32.519531"/>
  <use xlink:href="#glyph0-3" x="185" y="32.519531"/>
  <use xlink:href="#glyph0-12" x="195" y="32.519531"/>
  <use xlink:href="#glyph0-5" x="202" y="32.519531"/>
  <use xlink:href="#glyph0-10" x="211" y="32.519531"/>
  <use xlink:href="#glyph0-5" x="217" y="32.519531"/>
  <use xlink:href="#glyph0-13" x="226" y="32.519531"/>
  <use xlink:href="#glyph0-5" x="234" y="32.519531"/>
  <use xlink:href="#glyph0-8" x="243" y="32.519531"/>
</g>
</g>
</svg>
