<?xml version="1.0" encoding="UTF-8"?>
<svg xmlns="http://www.w3.org/2000/svg" xmlns:xlink="http://www.w3.org/1999/xlink" width="3840pt" height="2160pt" viewBox="0 0 3840 2160" version="1.1">
<defs>
<g>
<symbol overflow="visible" id="glyph0-0">
<path style="stroke:none;" d="M 0.65625 2.359375 L 0.65625 -9.390625 L 7.328125 -9.390625 L 7.328125 2.359375 Z M 1.40625 1.609375 L 6.59375 1.609375 L 6.59375 -8.65625 L 1.40625 -8.65625 Z "/>
</symbol>
<symbol overflow="visible" id="glyph0-1">
<path style="stroke:none;" d="M 2 -4.953125 C 2 -5.492188 2.1875 -5.945312 2.5625 -6.3125 C 2.9375 -6.6875 3.394531 -6.875 3.9375 -6.875 C 4.476562 -6.875 4.929688 -6.6875 5.296875 -6.3125 C 5.671875 -5.945312 5.859375 -5.492188 5.859375 -4.953125 C 5.859375 -4.410156 5.671875 -3.953125 5.296875 -3.578125 C 4.929688 -3.210938 4.476562 -3.03125 3.9375 -3.03125 C 3.394531 -3.03125 2.9375 -3.210938 2.5625 -3.578125 C 2.1875 -3.953125 2 -4.410156 2 -4.953125 Z "/>
</symbol>
<symbol overflow="visible" id="glyph0-2">
<path style="stroke:none;" d=""/>
</symbol>
<symbol overflow="visible" id="glyph0-3">
<path style="stroke:none;" d="M 3.296875 -4.953125 L 5.015625 -4.953125 C 5.660156 -4.953125 6.148438 -5.125 6.484375 -5.46875 C 6.828125 -5.820312 7 -6.328125 7 -6.984375 C 7 -7.648438 6.828125 -8.15625 6.484375 -8.5 C 6.148438 -8.84375 5.660156 -9.015625 5.015625 -9.015625 L 3.296875 -9.015625 Z M 0.734375 0 L 0.734375 -0.6875 L 1.96875 -0.6875 L 1.96875 -9.015625 L 0.734375 -9.015625 L 0.734375 -9.71875 L 5.328125 -9.71875 C 6.296875 -9.71875 7.066406 -9.46875 7.640625 -8.96875 C 8.210938 -8.476562 8.5 -7.816406 8.5 -6.984375 C 8.5 -6.148438 8.210938 -5.484375 7.640625 -4.984375 C 7.066406 -4.492188 6.296875 -4.25 5.328125 -4.25 L 3.296875 -4.25 L 3.296875 -0.6875 L 4.796875 -0.6875 L 4.796875 0 Z "/>
</symbol>
<symbol overflow="visible" id="glyph0-4">
<path style="stroke:none;" d="M 2.875 1.265625 L 3.328125 0.109375 L 0.75 -6.21875 L -0.03125 -6.21875 L -0.03125 -6.921875 L 3.140625 -6.921875 L 3.140625 -6.21875 L 2.03125 -6.21875 L 3.984375 -1.46875 L 5.921875 -6.21875 L 4.890625 -6.21875 L 4.890625 -6.921875 L 7.484375 -6.921875 L 7.484375 -6.21875 L 6.71875 -6.21875 L 3.546875 1.5625 C 3.328125 2.101562 3.082031 2.472656 2.8125 2.671875 C 2.550781 2.867188 2.179688 2.96875 1.703125 2.96875 C 1.503906 2.96875 1.296875 2.945312 1.078125 2.90625 C 0.859375 2.875 0.640625 2.828125 0.421875 2.765625 L 0.421875 1.4375 L 1.046875 1.4375 C 1.066406 1.726562 1.140625 1.9375 1.265625 2.0625 C 1.390625 2.195312 1.582031 2.265625 1.84375 2.265625 C 2.082031 2.265625 2.273438 2.195312 2.421875 2.0625 C 2.566406 1.9375 2.71875 1.671875 2.875 1.265625 Z "/>
</symbol>
<symbol overflow="visible" id="glyph0-5">
<path style="stroke:none;" d="M 1.4375 -6.21875 L 0.390625 -6.21875 L 0.390625 -6.921875 L 1.4375 -6.921875 L 1.4375 -9.0625 L 2.640625 -9.0625 L 2.640625 -6.921875 L 4.890625 -6.921875 L 4.890625 -6.21875 L 2.640625 -6.21875 L 2.640625 -1.828125 C 2.640625 -1.242188 2.695312 -0.867188 2.8125 -0.703125 C 2.925781 -0.535156 3.132812 -0.453125 3.4375 -0.453125 C 3.75 -0.453125 3.972656 -0.546875 4.109375 -0.734375 C 4.253906 -0.921875 4.332031 -1.21875 4.34375 -1.625 L 5.25 -1.625 C 5.21875 -1 5.046875 -0.539062 4.734375 -0.25 C 4.429688 0.0390625 3.960938 0.1875 3.328125 0.1875 C 2.640625 0.1875 2.148438 0.0351562 1.859375 -0.265625 C 1.578125 -0.578125 1.4375 -1.097656 1.4375 -1.828125 Z "/>
</symbol>
<symbol overflow="visible" id="glyph0-6">
<path style="stroke:none;" d="M 0.546875 0 L 0.546875 -0.6875 L 1.625 -0.6875 L 1.625 -9.4375 L 0.484375 -9.4375 L 0.484375 -10.125 L 2.828125 -10.125 L 2.828125 -5.6875 C 3.046875 -6.15625 3.332031 -6.507812 3.6875 -6.75 C 4.039062 -6.988281 4.453125 -7.109375 4.921875 -7.109375 C 5.679688 -7.109375 6.238281 -6.890625 6.59375 -6.453125 C 6.957031 -6.015625 7.140625 -5.332031 7.140625 -4.40625 L 7.140625 -0.6875 L 8.21875 -0.6875 L 8.21875 0 L 4.90625 0 L 4.90625 -0.6875 L 5.9375 -0.6875 L 5.9375 -4.015625 C 5.9375 -4.867188 5.832031 -5.445312 5.625 -5.75 C 5.425781 -6.0625 5.0625 -6.21875 4.53125 -6.21875 C 3.976562 -6.21875 3.554688 -6.015625 3.265625 -5.609375 C 2.972656 -5.210938 2.828125 -4.628906 2.828125 -3.859375 L 2.828125 -0.6875 L 3.859375 -0.6875 L 3.859375 0 Z "/>
</symbol>
<symbol overflow="visible" id="glyph0-7">
<path style="stroke:none;" d="M 4.015625 -0.453125 C 4.648438 -0.453125 5.128906 -0.707031 5.453125 -1.21875 C 5.785156 -1.726562 5.953125 -2.476562 5.953125 -3.46875 C 5.953125 -4.457031 5.785156 -5.203125 5.453125 -5.703125 C 5.128906 -6.210938 4.648438 -6.46875 4.015625 -6.46875 C 3.367188 -6.46875 2.878906 -6.210938 2.546875 -5.703125 C 2.222656 -5.203125 2.0625 -4.457031 2.0625 -3.46875 C 2.0625 -2.476562 2.222656 -1.726562 2.546875 -1.21875 C 2.878906 -0.707031 3.367188 -0.453125 4.015625 -0.453125 Z M 4.015625 0.1875 C 3.003906 0.1875 2.191406 -0.144531 1.578125 -0.8125 C 0.960938 -1.476562 0.65625 -2.363281 0.65625 -3.46875 C 0.65625 -4.5625 0.960938 -5.441406 1.578125 -6.109375 C 2.191406 -6.773438 3.003906 -7.109375 4.015625 -7.109375 C 5.023438 -7.109375 5.832031 -6.773438 6.4375 -6.109375 C 7.050781 -5.441406 7.359375 -4.5625 7.359375 -3.46875 C 7.359375 -2.363281 7.050781 -1.476562 6.4375 -0.8125 C 5.832031 -0.144531 5.023438 0.1875 4.015625 0.1875 Z "/>
</symbol>
<symbol overflow="visible" id="glyph0-8">
<path style="stroke:none;" d="M 0.546875 0 L 0.546875 -0.6875 L 1.625 -0.6875 L 1.625 -6.21875 L 0.484375 -6.21875 L 0.484375 -6.921875 L 2.828125 -6.921875 L 2.828125 -5.6875 C 3.046875 -6.15625 3.332031 -6.507812 3.6875 -6.75 C 4.039062 -6.988281 4.453125 -7.109375 4.921875 -7.109375 C 5.679688 -7.109375 6.238281 -6.890625 6.59375 -6.453125 C 6.957031 -6.015625 7.140625 -5.332031 7.140625 -4.40625 L 7.140625 -0.6875 L 8.21875 -0.6875 L 8.21875 0 L 4.90625 0 L 4.90625 -0.6875 L 5.9375 -0.6875 L 5.9375 -4.015625 C 5.9375 -4.867188 5.832031 -5.453125 5.625 -5.765625 C 5.414062 -6.078125 5.050781 -6.234375 4.53125 -6.234375 C 3.976562 -6.234375 3.554688 -6.03125 3.265625 -5.625 C 2.972656 -5.21875 2.828125 -4.628906 2.828125 -3.859375 L 2.828125 -0.6875 L 3.859375 -0.6875 L 3.859375 0 Z "/>
</symbol>
<symbol overflow="visible" id="glyph0-9">
<path style="stroke:none;" d="M 0.734375 0 L 0.734375 -0.6875 L 1.96875 -0.6875 L 1.96875 -9.015625 L 0.65625 -9.015625 L 0.65625 -9.71875 L 3.5 -9.71875 L 6.90625 -2.796875 L 10.3125 -9.71875 L 12.96875 -9.71875 L 12.96875 -9.015625 L 11.671875 -9.015625 L 11.671875 -0.6875 L 12.921875 -0.6875 L 12.921875 0 L 9.125 0 L 9.125 -0.6875 L 10.359375 -0.6875 L 10.359375 -8.203125 L 7.015625 -1.421875 L 6.109375 -1.421875 L 2.765625 -8.203125 L 2.765625 -0.6875 L 4.015625 -0.6875 L 4.015625 0 Z "/>
</symbol>
<symbol overflow="visible" id="glyph0-10">
<path style="stroke:none;" d="M 0.75 -0.390625 L 0.75 -2 L 1.4375 -2 C 1.457031 -1.476562 1.617188 -1.085938 1.921875 -0.828125 C 2.222656 -0.578125 2.675781 -0.453125 3.28125 -0.453125 C 3.820312 -0.453125 4.234375 -0.550781 4.515625 -0.75 C 4.796875 -0.957031 4.9375 -1.253906 4.9375 -1.640625 C 4.9375 -1.941406 4.832031 -2.1875 4.625 -2.375 C 4.414062 -2.5625 3.976562 -2.757812 3.3125 -2.96875 L 2.453125 -3.265625 C 1.859375 -3.453125 1.425781 -3.6875 1.15625 -3.96875 C 0.894531 -4.257812 0.765625 -4.628906 0.765625 -5.078125 C 0.765625 -5.710938 0.992188 -6.207031 1.453125 -6.5625 C 1.921875 -6.925781 2.566406 -7.109375 3.390625 -7.109375 C 3.753906 -7.109375 4.132812 -7.054688 4.53125 -6.953125 C 4.9375 -6.859375 5.351562 -6.722656 5.78125 -6.546875 L 5.78125 -5.03125 L 5.09375 -5.03125 C 5.070312 -5.476562 4.914062 -5.828125 4.625 -6.078125 C 4.332031 -6.335938 3.929688 -6.46875 3.421875 -6.46875 C 2.921875 -6.46875 2.539062 -6.375 2.28125 -6.1875 C 2.019531 -6.007812 1.890625 -5.742188 1.890625 -5.390625 C 1.890625 -5.097656 1.988281 -4.863281 2.1875 -4.6875 C 2.382812 -4.519531 2.773438 -4.34375 3.359375 -4.15625 L 4.3125 -3.859375 C 4.96875 -3.660156 5.4375 -3.40625 5.71875 -3.09375 C 6.007812 -2.789062 6.15625 -2.398438 6.15625 -1.921875 C 6.15625 -1.265625 5.90625 -0.75 5.40625 -0.375 C 4.90625 0 4.210938 0.1875 3.328125 0.1875 C 2.878906 0.1875 2.441406 0.140625 2.015625 0.046875 C 1.597656 -0.046875 1.175781 -0.191406 0.75 -0.390625 Z "/>
</symbol>
<symbol overflow="visible" id="glyph0-11">
<path style="stroke:none;" d="M 6.859375 -2.078125 C 6.679688 -1.335938 6.351562 -0.773438 5.875 -0.390625 C 5.394531 -0.00390625 4.773438 0.1875 4.015625 0.1875 C 3.003906 0.1875 2.191406 -0.144531 1.578125 -0.8125 C 0.960938 -1.476562 0.65625 -2.363281 0.65625 -3.46875 C 0.65625 -4.570312 0.960938 -5.453125 1.578125 -6.109375 C 2.191406 -6.773438 3.003906 -7.109375 4.015625 -7.109375 C 4.453125 -7.109375 4.882812 -7.054688 5.3125 -6.953125 C 5.75 -6.847656 6.1875 -6.691406 6.625 -6.484375 L 6.625 -4.71875 L 5.921875 -4.71875 C 5.835938 -5.320312 5.640625 -5.765625 5.328125 -6.046875 C 5.023438 -6.328125 4.585938 -6.46875 4.015625 -6.46875 C 3.367188 -6.46875 2.878906 -6.210938 2.546875 -5.703125 C 2.222656 -5.203125 2.0625 -4.457031 2.0625 -3.46875 C 2.0625 -2.46875 2.222656 -1.710938 2.546875 -1.203125 C 2.878906 -0.703125 3.367188 -0.453125 4.015625 -0.453125 C 4.535156 -0.453125 4.945312 -0.585938 5.25 -0.859375 C 5.5625 -1.128906 5.773438 -1.535156 5.890625 -2.078125 Z "/>
</symbol>
<symbol overflow="visible" id="glyph0-12">
<path style="stroke:none;" d="M 6.390625 -6.921875 L 8.171875 -1.515625 L 9.734375 -6.21875 L 8.734375 -6.21875 L 8.734375 -6.921875 L 11.234375 -6.921875 L 11.234375 -6.21875 L 10.46875 -6.21875 L 8.40625 0 L 7.40625 0 L 5.703125 -5.171875 L 4 0 L 3.046875 0 L 0.984375 -6.21875 L 0.21875 -6.21875 L 0.21875 -6.921875 L 3.34375 -6.921875 L 3.34375 -6.21875 L 2.21875 -6.21875 L 3.78125 -1.515625 L 5.5625 -6.921875 Z "/>
</symbol>
<symbol overflow="visible" id="glyph0-13">
<path style="stroke:none;" d="M 1.703125 -7.40625 L 0.96875 -7.40625 L 0.96875 -9.125 C 1.4375 -9.375 1.90625 -9.5625 2.375 -9.6875 C 2.84375 -9.820312 3.304688 -9.890625 3.765625 -9.890625 C 4.773438 -9.890625 5.570312 -9.644531 6.15625 -9.15625 C 6.738281 -8.664062 7.03125 -8 7.03125 -7.15625 C 7.03125 -6.207031 6.367188 -5.070312 5.046875 -3.75 C 4.941406 -3.644531 4.863281 -3.566406 4.8125 -3.515625 L 2.359375 -1.0625 L 6.40625 -1.0625 L 6.40625 -2.265625 L 7.171875 -2.265625 L 7.171875 0 L 0.90625 0 L 0.90625 -0.703125 L 3.859375 -3.65625 C 4.503906 -4.300781 4.960938 -4.894531 5.234375 -5.4375 C 5.515625 -5.988281 5.65625 -6.5625 5.65625 -7.15625 C 5.65625 -7.8125 5.484375 -8.320312 5.140625 -8.6875 C 4.804688 -9.0625 4.335938 -9.25 3.734375 -9.25 C 3.117188 -9.25 2.640625 -9.09375 2.296875 -8.78125 C 1.960938 -8.476562 1.765625 -8.019531 1.703125 -7.40625 Z "/>
</symbol>
<symbol overflow="visible" id="glyph0-14">
<path style="stroke:none;" d="M 4.234375 -0.453125 C 4.898438 -0.453125 5.394531 -0.816406 5.71875 -1.546875 C 6.050781 -2.273438 6.21875 -3.375 6.21875 -4.84375 C 6.21875 -6.320312 6.050781 -7.425781 5.71875 -8.15625 C 5.394531 -8.882812 4.898438 -9.25 4.234375 -9.25 C 3.566406 -9.25 3.066406 -8.882812 2.734375 -8.15625 C 2.410156 -7.425781 2.25 -6.320312 2.25 -4.84375 C 2.25 -3.375 2.410156 -2.273438 2.734375 -1.546875 C 3.066406 -0.816406 3.566406 -0.453125 4.234375 -0.453125 Z M 4.234375 0.1875 C 3.179688 0.1875 2.359375 -0.253906 1.765625 -1.140625 C 1.171875 -2.023438 0.875 -3.257812 0.875 -4.84375 C 0.875 -6.4375 1.171875 -7.675781 1.765625 -8.5625 C 2.359375 -9.445312 3.179688 -9.890625 4.234375 -9.890625 C 5.296875 -9.890625 6.117188 -9.445312 6.703125 -8.5625 C 7.296875 -7.675781 7.59375 -6.4375 7.59375 -4.84375 C 7.59375 -3.257812 7.296875 -2.023438 6.703125 -1.140625 C 6.117188 -0.253906 5.296875 0.1875 4.234375 0.1875 Z "/>
</symbol>
<symbol overflow="visible" id="glyph0-15">
<path style="stroke:none;" d="M 4.65625 -3.296875 L 4.65625 -8.453125 L 1.328125 -3.296875 Z M 7.515625 0 L 3.09375 0 L 3.09375 -0.6875 L 4.65625 -0.6875 L 4.65625 -2.59375 L 0.40625 -2.59375 L 0.40625 -3.3125 L 4.671875 -9.890625 L 5.953125 -9.890625 L 5.953125 -3.296875 L 7.8125 -3.296875 L 7.8125 -2.59375 L 5.953125 -2.59375 L 5.953125 -0.6875 L 7.515625 -0.6875 Z "/>
</symbol>
</g>
</defs>
<g id="surface70">
<g style="fill:rgb(45.098039%,44.705882%,42.352941%);fill-opacity:1;">
  <use xlink:href="#glyph0-1" x="30" y="32.375977"/>
  <use xlink:href="#glyph0-2" x="38" y="32.375977"/>
  <use xlink:href="#glyph0-3" x="42" y="32.375977"/>
  <use xlink:href="#glyph0-4" x="51" y="32.375977"/>
  <use xlink:href="#glyph0-5" x="59" y="32.375977"/>
  <use xlink:href="#glyph0-6" x="64" y="32.375977"/>
  <use xlink:href="#glyph0-7" x="73" y="32.375977"/>
  <use xlink:href="#glyph0-8" x="81" y="32.375977"/>
  <use xlink:href="#glyph0-2" x="90" y="32.375977"/>
  <use xlink:href="#glyph0-9" x="94" y="32.375977"/>
  <use xlink:href="#glyph0-7" x="108" y="32.375977"/>
  <use xlink:href="#glyph0-10" x="116" y="32.375977"/>
  <use xlink:href="#glyph0-11" x="123" y="32.375977"/>
  <use xlink:href="#glyph0-7" x="130" y="32.375977"/>
  <use xlink:href="#glyph0-12" x="138" y="32.375977"/>
  <use xlink:href="#glyph0-2" x="149" y="32.375977"/>
  <use xlink:href="#glyph0-13" x="153" y="32.375977"/>
  <use xlink:href="#glyph0-14" x="161" y="32.375977"/>
  <use xlink:href="#glyph0-13" x="169" y="32.375977"/>
  <use xlink:href="#glyph0-15" x="177" y="32.375977"/>
</g>
</g>
</svg>
