<?xml version="1.0" encoding="UTF-8"?>
<svg xmlns="http://www.w3.org/2000/svg" xmlns:xlink="http://www.w3.org/1999/xlink" width="3840pt" height="2160pt" viewBox="0 0 3840 2160" version="1.1">
<defs>
<g>
<symbol overflow="visible" id="glyph0-0">
<path style="stroke:none;" d="M 0.65625 2.359375 L 0.65625 -9.390625 L 7.328125 -9.390625 L 7.328125 2.359375 Z M 1.40625 1.609375 L 6.59375 1.609375 L 6.59375 -8.65625 L 1.40625 -8.65625 Z "/>
</symbol>
<symbol overflow="visible" id="glyph0-1">
<path style="stroke:none;" d="M 0.625 -0.203125 L 0.625 -2.140625 L 1.359375 -2.140625 C 1.421875 -1.617188 1.613281 -1.222656 1.9375 -0.953125 C 2.257812 -0.679688 2.703125 -0.546875 3.265625 -0.546875 C 3.734375 -0.546875 4.09375 -0.625 4.34375 -0.78125 C 4.59375 -0.945312 4.71875 -1.179688 4.71875 -1.484375 C 4.71875 -1.765625 4.640625 -1.976562 4.484375 -2.125 C 4.328125 -2.28125 4.019531 -2.414062 3.5625 -2.53125 L 2.609375 -2.765625 C 1.890625 -2.953125 1.367188 -3.207031 1.046875 -3.53125 C 0.734375 -3.863281 0.578125 -4.3125 0.578125 -4.875 C 0.578125 -5.625 0.835938 -6.179688 1.359375 -6.546875 C 1.878906 -6.921875 2.679688 -7.109375 3.765625 -7.109375 C 4.171875 -7.109375 4.601562 -7.070312 5.0625 -7 C 5.53125 -6.9375 6.039062 -6.832031 6.59375 -6.6875 L 6.59375 -4.953125 L 5.859375 -4.953125 C 5.828125 -5.421875 5.660156 -5.773438 5.359375 -6.015625 C 5.054688 -6.253906 4.628906 -6.375 4.078125 -6.375 C 3.609375 -6.375 3.253906 -6.296875 3.015625 -6.140625 C 2.773438 -5.992188 2.65625 -5.78125 2.65625 -5.5 C 2.65625 -5.257812 2.722656 -5.070312 2.859375 -4.9375 C 3.003906 -4.800781 3.253906 -4.6875 3.609375 -4.59375 L 4.5625 -4.359375 C 5.46875 -4.128906 6.09375 -3.84375 6.4375 -3.5 C 6.78125 -3.164062 6.953125 -2.695312 6.953125 -2.09375 C 6.953125 -1.3125 6.671875 -0.734375 6.109375 -0.359375 C 5.554688 0.00390625 4.691406 0.1875 3.515625 0.1875 C 3.085938 0.1875 2.632812 0.15625 2.15625 0.09375 C 1.675781 0.03125 1.164062 -0.0664062 0.625 -0.203125 Z "/>
</symbol>
<symbol overflow="visible" id="glyph0-2">
<path style="stroke:none;" d="M 1.328125 -6.125 L 0.3125 -6.125 L 0.3125 -6.921875 L 1.328125 -6.921875 L 1.328125 -9.0625 L 3.625 -9.0625 L 3.625 -6.921875 L 5.546875 -6.921875 L 5.546875 -6.125 L 3.625 -6.125 L 3.625 -1.890625 C 3.625 -1.285156 3.671875 -0.910156 3.765625 -0.765625 C 3.859375 -0.617188 4.03125 -0.546875 4.28125 -0.546875 C 4.5625 -0.546875 4.769531 -0.640625 4.90625 -0.828125 C 5.039062 -1.015625 5.113281 -1.300781 5.125 -1.6875 L 6.09375 -1.6875 C 6.050781 -1 5.859375 -0.515625 5.515625 -0.234375 C 5.179688 0.046875 4.597656 0.1875 3.765625 0.1875 C 2.816406 0.1875 2.171875 0.0390625 1.828125 -0.25 C 1.492188 -0.550781 1.328125 -1.097656 1.328125 -1.890625 Z "/>
</symbol>
<symbol overflow="visible" id="glyph0-3">
<path style="stroke:none;" d="M 7.15625 -7 L 7.15625 -4.9375 L 6.421875 -4.9375 C 6.398438 -5.300781 6.300781 -5.570312 6.125 -5.75 C 5.945312 -5.9375 5.695312 -6.03125 5.375 -6.03125 C 4.863281 -6.03125 4.460938 -5.804688 4.171875 -5.359375 C 3.878906 -4.921875 3.734375 -4.304688 3.734375 -3.515625 L 3.734375 -0.78125 L 5 -0.78125 L 5 0 L 0.453125 0 L 0.453125 -0.78125 L 1.4375 -0.78125 L 1.4375 -6.125 L 0.390625 -6.125 L 0.390625 -6.921875 L 3.734375 -6.921875 L 3.734375 -5.6875 C 3.960938 -6.164062 4.257812 -6.519531 4.625 -6.75 C 5 -6.988281 5.457031 -7.109375 6 -7.109375 C 6.132812 -7.109375 6.296875 -7.097656 6.484375 -7.078125 C 6.679688 -7.054688 6.90625 -7.03125 7.15625 -7 Z "/>
</symbol>
</g>
</defs>
<g id="surface269">
<g style="fill:rgb(75.686275%,37.254902%,23.529412%);fill-opacity:1;">
  <use xlink:href="#glyph0-1" x="30" y="32.519531"/>
  <use xlink:href="#glyph0-2" x="38" y="32.519531"/>
  <use xlink:href="#glyph0-3" x="44" y="32.519531"/>
</g>
</g>
</svg>
