<?xml version="1.0" encoding="UTF-8"?>
<svg xmlns="http://www.w3.org/2000/svg" xmlns:xlink="http://www.w3.org/1999/xlink" width="3840pt" height="2160pt" viewBox="0 0 3840 2160" version="1.1">
<defs>
<g>
<symbol overflow="visible" id="glyph0-0">
<path style="stroke:none;" d="M 0.65625 2.359375 L 0.65625 -9.390625 L 7.328125 -9.390625 L 7.328125 2.359375 Z M 1.40625 1.609375 L 6.59375 1.609375 L 6.59375 -8.65625 L 1.40625 -8.65625 Z "/>
</symbol>
<symbol overflow="visible" id="glyph0-1">
<path style="stroke:none;" d="M 7.34375 -4.25 L 7.34375 -0.78125 L 8.328125 -0.78125 L 8.328125 0 L 5.03125 0 L 5.03125 -0.875 C 4.726562 -0.507812 4.390625 -0.238281 4.015625 -0.0625 C 3.648438 0.101562 3.226562 0.1875 2.75 0.1875 C 2.039062 0.1875 1.492188 0 1.109375 -0.375 C 0.734375 -0.757812 0.546875 -1.304688 0.546875 -2.015625 C 0.546875 -2.785156 0.816406 -3.363281 1.359375 -3.75 C 1.910156 -4.132812 2.734375 -4.328125 3.828125 -4.328125 L 5.03125 -4.328125 L 5.03125 -4.75 C 5.03125 -5.300781 4.898438 -5.710938 4.640625 -5.984375 C 4.378906 -6.253906 3.96875 -6.390625 3.40625 -6.390625 C 2.945312 -6.390625 2.59375 -6.289062 2.34375 -6.09375 C 2.09375 -5.90625 1.914062 -5.597656 1.8125 -5.171875 L 1.078125 -5.171875 L 1.078125 -6.671875 C 1.492188 -6.816406 1.921875 -6.925781 2.359375 -7 C 2.804688 -7.070312 3.273438 -7.109375 3.765625 -7.109375 C 4.992188 -7.109375 5.894531 -6.878906 6.46875 -6.421875 C 7.050781 -5.960938 7.34375 -5.238281 7.34375 -4.25 Z M 5.03125 -2.171875 L 5.03125 -3.5625 L 4.171875 -3.5625 C 3.742188 -3.5625 3.414062 -3.441406 3.1875 -3.203125 C 2.957031 -2.972656 2.84375 -2.640625 2.84375 -2.203125 C 2.84375 -1.765625 2.925781 -1.4375 3.09375 -1.21875 C 3.257812 -1 3.515625 -0.890625 3.859375 -0.890625 C 4.210938 -0.890625 4.492188 -1.003906 4.703125 -1.234375 C 4.921875 -1.472656 5.03125 -1.785156 5.03125 -2.171875 Z "/>
</symbol>
<symbol overflow="visible" id="glyph0-2">
<path style="stroke:none;" d="M 7.1875 -6.921875 L 8.765625 -2.296875 L 10.0625 -6.125 L 9.15625 -6.125 L 9.15625 -6.921875 L 11.734375 -6.921875 L 11.734375 -6.125 L 10.921875 -6.125 L 8.84375 0 L 7.25 0 L 5.78125 -4.328125 L 4.3125 0 L 2.734375 0 L 0.640625 -6.125 L -0.109375 -6.125 L -0.109375 -6.921875 L 3.796875 -6.921875 L 3.796875 -6.125 L 2.984375 -6.125 L 4.265625 -2.390625 L 5.8125 -6.921875 Z "/>
</symbol>
</g>
</defs>
<g id="surface279">
<g style="fill:rgb(69.411765%,67.843137%,63.137255%);fill-opacity:1;">
  <use xlink:href="#glyph0-1" x="30" y="32.519531"/>
  <use xlink:href="#glyph0-2" x="39" y="32.519531"/>
</g>
</g>
</svg>
