<?xml version="1.0" encoding="UTF-8"?>
<svg xmlns="http://www.w3.org/2000/svg" xmlns:xlink="http://www.w3.org/1999/xlink" width="3840pt" height="2160pt" viewBox="0 0 3840 2160" version="1.1">
<defs>
<g>
<symbol overflow="visible" id="glyph0-0">
<path style="stroke:none;" d="M 0.65625 2.359375 L 0.65625 -9.390625 L 7.328125 -9.390625 L 7.328125 2.359375 Z M 1.40625 1.609375 L 6.59375 1.609375 L 6.59375 -8.65625 L 1.40625 -8.65625 Z "/>
</symbol>
<symbol overflow="visible" id="glyph0-1">
<path style="stroke:none;" d="M 9.9375 -2.765625 C 9.675781 -1.765625 9.210938 -1.019531 8.546875 -0.53125 C 7.890625 -0.0507812 7 0.1875 5.875 0.1875 C 4.238281 0.1875 2.941406 -0.265625 1.984375 -1.171875 C 1.035156 -2.078125 0.5625 -3.300781 0.5625 -4.84375 C 0.5625 -6.394531 1.035156 -7.625 1.984375 -8.53125 C 2.941406 -9.4375 4.238281 -9.890625 5.875 -9.890625 C 6.445312 -9.890625 7.046875 -9.816406 7.671875 -9.671875 C 8.296875 -9.535156 8.960938 -9.328125 9.671875 -9.046875 L 9.671875 -6.671875 L 8.84375 -6.671875 C 8.664062 -7.484375 8.351562 -8.09375 7.90625 -8.5 C 7.46875 -8.90625 6.878906 -9.109375 6.140625 -9.109375 C 5.191406 -9.109375 4.488281 -8.757812 4.03125 -8.0625 C 3.570312 -7.363281 3.34375 -6.289062 3.34375 -4.84375 C 3.34375 -3.40625 3.570312 -2.335938 4.03125 -1.640625 C 4.488281 -0.941406 5.195312 -0.59375 6.15625 -0.59375 C 6.800781 -0.59375 7.328125 -0.769531 7.734375 -1.125 C 8.148438 -1.488281 8.453125 -2.035156 8.640625 -2.765625 Z "/>
</symbol>
<symbol overflow="visible" id="glyph0-2">
<path style="stroke:none;" d="M 0.625 0 L 0.625 -0.78125 L 1.875 -0.78125 L 1.875 -8.921875 L 0.625 -8.921875 L 0.625 -9.71875 L 5.625 -9.71875 L 5.625 -8.921875 L 4.375 -8.921875 L 4.375 -0.890625 L 8.203125 -0.890625 L 8.203125 -2.421875 L 9.078125 -2.421875 L 9.078125 0 Z "/>
</symbol>
<symbol overflow="visible" id="glyph0-3">
<path style="stroke:none;" d="M 0.625 0 L 0.625 -0.78125 L 1.875 -0.78125 L 1.875 -8.921875 L 0.625 -8.921875 L 0.625 -9.71875 L 5.625 -9.71875 L 5.625 -8.921875 L 4.375 -8.921875 L 4.375 -0.78125 L 5.625 -0.78125 L 5.625 0 Z "/>
</symbol>
<symbol overflow="visible" id="glyph0-4">
<path style="stroke:none;" d=""/>
</symbol>
<symbol overflow="visible" id="glyph0-5">
<path style="stroke:none;" d="M 2.421875 0 L 2.421875 -0.78125 L 3.703125 -0.78125 L 3.703125 -8.828125 L 1.046875 -8.828125 L 1.046875 -7.28125 L 0.15625 -7.28125 L 0.15625 -9.71875 L 9.78125 -9.71875 L 9.78125 -7.28125 L 8.90625 -7.28125 L 8.90625 -8.828125 L 6.21875 -8.828125 L 6.21875 -0.78125 L 7.515625 -0.78125 L 7.515625 0 Z "/>
</symbol>
<symbol overflow="visible" id="glyph0-6">
<path style="stroke:none;" d="M 4.453125 -0.546875 C 4.941406 -0.546875 5.28125 -0.753906 5.46875 -1.171875 C 5.664062 -1.585938 5.765625 -2.351562 5.765625 -3.46875 C 5.765625 -4.570312 5.664062 -5.332031 5.46875 -5.75 C 5.28125 -6.164062 4.941406 -6.375 4.453125 -6.375 C 3.960938 -6.375 3.617188 -6.160156 3.421875 -5.734375 C 3.222656 -5.316406 3.125 -4.5625 3.125 -3.46875 C 3.125 -2.363281 3.222656 -1.597656 3.421875 -1.171875 C 3.617188 -0.753906 3.960938 -0.546875 4.453125 -0.546875 Z M 4.453125 0.1875 C 3.234375 0.1875 2.273438 -0.132812 1.578125 -0.78125 C 0.890625 -1.425781 0.546875 -2.320312 0.546875 -3.46875 C 0.546875 -4.601562 0.890625 -5.492188 1.578125 -6.140625 C 2.273438 -6.785156 3.234375 -7.109375 4.453125 -7.109375 C 5.671875 -7.109375 6.625 -6.785156 7.3125 -6.140625 C 8.007812 -5.492188 8.359375 -4.601562 8.359375 -3.46875 C 8.359375 -2.320312 8.007812 -1.425781 7.3125 -0.78125 C 6.625 -0.132812 5.671875 0.1875 4.453125 0.1875 Z "/>
</symbol>
<symbol overflow="visible" id="glyph0-7">
<path style="stroke:none;" d="M 3.734375 -0.78125 L 4.734375 -0.78125 L 4.734375 0 L 0.453125 0 L 0.453125 -0.78125 L 1.4375 -0.78125 L 1.4375 -9.34375 L 0.453125 -9.34375 L 0.453125 -10.125 L 3.734375 -10.125 Z "/>
</symbol>
<symbol overflow="visible" id="glyph0-8">
<path style="stroke:none;" d="M 0.625 -0.203125 L 0.625 -2.140625 L 1.359375 -2.140625 C 1.421875 -1.617188 1.613281 -1.222656 1.9375 -0.953125 C 2.257812 -0.679688 2.703125 -0.546875 3.265625 -0.546875 C 3.734375 -0.546875 4.09375 -0.625 4.34375 -0.78125 C 4.59375 -0.945312 4.71875 -1.179688 4.71875 -1.484375 C 4.71875 -1.765625 4.640625 -1.976562 4.484375 -2.125 C 4.328125 -2.28125 4.019531 -2.414062 3.5625 -2.53125 L 2.609375 -2.765625 C 1.890625 -2.953125 1.367188 -3.207031 1.046875 -3.53125 C 0.734375 -3.863281 0.578125 -4.3125 0.578125 -4.875 C 0.578125 -5.625 0.835938 -6.179688 1.359375 -6.546875 C 1.878906 -6.921875 2.679688 -7.109375 3.765625 -7.109375 C 4.171875 -7.109375 4.601562 -7.070312 5.0625 -7 C 5.53125 -6.9375 6.039062 -6.832031 6.59375 -6.6875 L 6.59375 -4.953125 L 5.859375 -4.953125 C 5.828125 -5.421875 5.660156 -5.773438 5.359375 -6.015625 C 5.054688 -6.253906 4.628906 -6.375 4.078125 -6.375 C 3.609375 -6.375 3.253906 -6.296875 3.015625 -6.140625 C 2.773438 -5.992188 2.65625 -5.78125 2.65625 -5.5 C 2.65625 -5.257812 2.722656 -5.070312 2.859375 -4.9375 C 3.003906 -4.800781 3.253906 -4.6875 3.609375 -4.59375 L 4.5625 -4.359375 C 5.46875 -4.128906 6.09375 -3.84375 6.4375 -3.5 C 6.78125 -3.164062 6.953125 -2.695312 6.953125 -2.09375 C 6.953125 -1.3125 6.671875 -0.734375 6.109375 -0.359375 C 5.554688 0.00390625 4.691406 0.1875 3.515625 0.1875 C 3.085938 0.1875 2.632812 0.15625 2.15625 0.09375 C 1.675781 0.03125 1.164062 -0.0664062 0.625 -0.203125 Z "/>
</symbol>
</g>
</defs>
<g id="surface439">
<g style="fill:rgb(69.411765%,67.843137%,63.137255%);fill-opacity:1;">
  <use xlink:href="#glyph0-1" x="30" y="32.519531"/>
  <use xlink:href="#glyph0-2" x="41" y="32.519531"/>
  <use xlink:href="#glyph0-3" x="50" y="32.519531"/>
  <use xlink:href="#glyph0-4" x="56" y="32.519531"/>
  <use xlink:href="#glyph0-5" x="61" y="32.519531"/>
  <use xlink:href="#glyph0-6" x="69" y="32.519531"/>
  <use xlink:href="#glyph0-6" x="78" y="32.519531"/>
  <use xlink:href="#glyph0-7" x="87" y="32.519531"/>
  <use xlink:href="#glyph0-8" x="92" y="32.519531"/>
</g>
</g>
</svg>
