<?xml version="1.0" encoding="UTF-8"?>
<svg xmlns="http://www.w3.org/2000/svg" xmlns:xlink="http://www.w3.org/1999/xlink" width="3840pt" height="2160pt" viewBox="0 0 3840 2160" version="1.1">
<defs>
<g>
<symbol overflow="visible" id="glyph0-0">
<path style="stroke:none;" d="M 0.65625 2.359375 L 0.65625 -9.390625 L 7.328125 -9.390625 L 7.328125 2.359375 Z M 1.40625 1.609375 L 6.59375 1.609375 L 6.59375 -8.65625 L 1.40625 -8.65625 Z "/>
</symbol>
<symbol overflow="visible" id="glyph0-1">
<path style="stroke:none;" d="M 0.625 0 L 0.625 -0.78125 L 1.875 -0.78125 L 1.875 -8.921875 L 0.625 -8.921875 L 0.625 -9.71875 L 6.15625 -9.71875 C 7.238281 -9.71875 8.097656 -9.457031 8.734375 -8.9375 C 9.367188 -8.425781 9.6875 -7.738281 9.6875 -6.875 C 9.6875 -6.007812 9.363281 -5.316406 8.71875 -4.796875 C 8.082031 -4.273438 7.226562 -4.015625 6.15625 -4.015625 L 4.375 -4.015625 L 4.375 -0.78125 L 5.9375 -0.78125 L 5.9375 0 Z M 4.375 -4.8125 L 5.109375 -4.8125 C 5.671875 -4.8125 6.117188 -5 6.453125 -5.375 C 6.785156 -5.75 6.953125 -6.25 6.953125 -6.875 C 6.953125 -7.5 6.785156 -7.992188 6.453125 -8.359375 C 6.117188 -8.734375 5.671875 -8.921875 5.109375 -8.921875 L 4.375 -8.921875 Z "/>
</symbol>
<symbol overflow="visible" id="glyph0-2">
<path style="stroke:none;" d="M 7.15625 -7 L 7.15625 -4.9375 L 6.421875 -4.9375 C 6.398438 -5.300781 6.300781 -5.570312 6.125 -5.75 C 5.945312 -5.9375 5.695312 -6.03125 5.375 -6.03125 C 4.863281 -6.03125 4.460938 -5.804688 4.171875 -5.359375 C 3.878906 -4.921875 3.734375 -4.304688 3.734375 -3.515625 L 3.734375 -0.78125 L 5 -0.78125 L 5 0 L 0.453125 0 L 0.453125 -0.78125 L 1.4375 -0.78125 L 1.4375 -6.125 L 0.390625 -6.125 L 0.390625 -6.921875 L 3.734375 -6.921875 L 3.734375 -5.6875 C 3.960938 -6.164062 4.257812 -6.519531 4.625 -6.75 C 5 -6.988281 5.457031 -7.109375 6 -7.109375 C 6.132812 -7.109375 6.296875 -7.097656 6.484375 -7.078125 C 6.679688 -7.054688 6.90625 -7.03125 7.15625 -7 Z "/>
</symbol>
<symbol overflow="visible" id="glyph0-3">
<path style="stroke:none;" d="M 4.453125 -0.546875 C 4.941406 -0.546875 5.28125 -0.753906 5.46875 -1.171875 C 5.664062 -1.585938 5.765625 -2.351562 5.765625 -3.46875 C 5.765625 -4.570312 5.664062 -5.332031 5.46875 -5.75 C 5.28125 -6.164062 4.941406 -6.375 4.453125 -6.375 C 3.960938 -6.375 3.617188 -6.160156 3.421875 -5.734375 C 3.222656 -5.316406 3.125 -4.5625 3.125 -3.46875 C 3.125 -2.363281 3.222656 -1.597656 3.421875 -1.171875 C 3.617188 -0.753906 3.960938 -0.546875 4.453125 -0.546875 Z M 4.453125 0.1875 C 3.234375 0.1875 2.273438 -0.132812 1.578125 -0.78125 C 0.890625 -1.425781 0.546875 -2.320312 0.546875 -3.46875 C 0.546875 -4.601562 0.890625 -5.492188 1.578125 -6.140625 C 2.273438 -6.785156 3.234375 -7.109375 4.453125 -7.109375 C 5.671875 -7.109375 6.625 -6.785156 7.3125 -6.140625 C 8.007812 -5.492188 8.359375 -4.601562 8.359375 -3.46875 C 8.359375 -2.320312 8.007812 -1.425781 7.3125 -0.78125 C 6.625 -0.132812 5.671875 0.1875 4.453125 0.1875 Z "/>
</symbol>
<symbol overflow="visible" id="glyph0-4">
<path style="stroke:none;" d="M 1.296875 -0.78125 L 1.296875 -9.34375 L 0.3125 -9.34375 L 0.3125 -10.125 L 3.59375 -10.125 L 3.59375 -6.046875 C 3.789062 -6.398438 4.050781 -6.664062 4.375 -6.84375 C 4.707031 -7.019531 5.117188 -7.109375 5.609375 -7.109375 C 6.597656 -7.109375 7.375 -6.78125 7.9375 -6.125 C 8.5 -5.476562 8.78125 -4.59375 8.78125 -3.46875 C 8.78125 -2.332031 8.5 -1.4375 7.9375 -0.78125 C 7.375 -0.132812 6.597656 0.1875 5.609375 0.1875 C 5.117188 0.1875 4.707031 0.0976562 4.375 -0.078125 C 4.050781 -0.253906 3.789062 -0.519531 3.59375 -0.875 L 3.59375 0 L 0.3125 0 L 0.3125 -0.78125 Z M 3.59375 -3.125 C 3.59375 -2.3125 3.695312 -1.722656 3.90625 -1.359375 C 4.113281 -1.003906 4.445312 -0.828125 4.90625 -0.828125 C 5.375 -0.828125 5.707031 -1.015625 5.90625 -1.390625 C 6.101562 -1.773438 6.203125 -2.46875 6.203125 -3.46875 C 6.203125 -4.457031 6.101562 -5.140625 5.90625 -5.515625 C 5.707031 -5.898438 5.375 -6.09375 4.90625 -6.09375 C 4.445312 -6.09375 4.113281 -5.910156 3.90625 -5.546875 C 3.695312 -5.191406 3.59375 -4.609375 3.59375 -3.796875 Z "/>
</symbol>
<symbol overflow="visible" id="glyph0-5">
<path style="stroke:none;" d="M 3.734375 -0.78125 L 4.734375 -0.78125 L 4.734375 0 L 0.453125 0 L 0.453125 -0.78125 L 1.4375 -0.78125 L 1.4375 -9.34375 L 0.453125 -9.34375 L 0.453125 -10.125 L 3.734375 -10.125 Z "/>
</symbol>
<symbol overflow="visible" id="glyph0-6">
<path style="stroke:none;" d="M 5.34375 -3.90625 C 5.34375 -4.8125 5.253906 -5.445312 5.078125 -5.8125 C 4.910156 -6.1875 4.625 -6.375 4.21875 -6.375 C 3.820312 -6.375 3.539062 -6.191406 3.375 -5.828125 C 3.207031 -5.472656 3.125 -4.867188 3.125 -4.015625 L 3.125 -3.90625 Z M 7.875 -3.125 L 3.125 -3.125 L 3.125 -3.078125 C 3.125 -2.179688 3.253906 -1.535156 3.515625 -1.140625 C 3.785156 -0.742188 4.222656 -0.546875 4.828125 -0.546875 C 5.328125 -0.546875 5.726562 -0.675781 6.03125 -0.9375 C 6.34375 -1.207031 6.539062 -1.59375 6.625 -2.09375 L 7.703125 -2.09375 C 7.515625 -1.3125 7.144531 -0.734375 6.59375 -0.359375 C 6.039062 0.00390625 5.265625 0.1875 4.265625 0.1875 C 3.066406 0.1875 2.144531 -0.125 1.5 -0.75 C 0.863281 -1.382812 0.546875 -2.289062 0.546875 -3.46875 C 0.546875 -4.613281 0.875 -5.503906 1.53125 -6.140625 C 2.1875 -6.785156 3.097656 -7.109375 4.265625 -7.109375 C 5.410156 -7.109375 6.285156 -6.769531 6.890625 -6.09375 C 7.503906 -5.414062 7.832031 -4.425781 7.875 -3.125 Z "/>
</symbol>
<symbol overflow="visible" id="glyph0-7">
<path style="stroke:none;" d="M 8.09375 -5.78125 C 8.414062 -6.238281 8.757812 -6.570312 9.125 -6.78125 C 9.5 -7 9.9375 -7.109375 10.4375 -7.109375 C 11.226562 -7.109375 11.820312 -6.882812 12.21875 -6.4375 C 12.613281 -5.988281 12.8125 -5.3125 12.8125 -4.40625 L 12.8125 -0.78125 L 13.796875 -0.78125 L 13.796875 0 L 9.671875 0 L 9.671875 -0.78125 L 10.5 -0.78125 L 10.5 -4.046875 C 10.5 -4.910156 10.429688 -5.457031 10.296875 -5.6875 C 10.171875 -5.914062 9.925781 -6.03125 9.5625 -6.03125 C 9.15625 -6.03125 8.835938 -5.867188 8.609375 -5.546875 C 8.390625 -5.234375 8.28125 -4.785156 8.28125 -4.203125 L 8.28125 -0.78125 L 9.109375 -0.78125 L 9.109375 0 L 5.140625 0 L 5.140625 -0.78125 L 5.96875 -0.78125 L 5.96875 -4.046875 C 5.96875 -4.910156 5.898438 -5.457031 5.765625 -5.6875 C 5.640625 -5.914062 5.394531 -6.03125 5.03125 -6.03125 C 4.625 -6.03125 4.304688 -5.867188 4.078125 -5.546875 C 3.847656 -5.234375 3.734375 -4.785156 3.734375 -4.203125 L 3.734375 -0.78125 L 4.5625 -0.78125 L 4.5625 0 L 0.453125 0 L 0.453125 -0.78125 L 1.4375 -0.78125 L 1.4375 -6.125 L 0.453125 -6.125 L 0.453125 -6.921875 L 3.734375 -6.921875 L 3.734375 -5.9375 C 4.003906 -6.34375 4.3125 -6.640625 4.65625 -6.828125 C 5.007812 -7.015625 5.425781 -7.109375 5.90625 -7.109375 C 6.46875 -7.109375 6.921875 -7 7.265625 -6.78125 C 7.617188 -6.570312 7.894531 -6.238281 8.09375 -5.78125 Z "/>
</symbol>
<symbol overflow="visible" id="glyph0-8">
<path style="stroke:none;" d="M 0.625 -0.203125 L 0.625 -2.140625 L 1.359375 -2.140625 C 1.421875 -1.617188 1.613281 -1.222656 1.9375 -0.953125 C 2.257812 -0.679688 2.703125 -0.546875 3.265625 -0.546875 C 3.734375 -0.546875 4.09375 -0.625 4.34375 -0.78125 C 4.59375 -0.945312 4.71875 -1.179688 4.71875 -1.484375 C 4.71875 -1.765625 4.640625 -1.976562 4.484375 -2.125 C 4.328125 -2.28125 4.019531 -2.414062 3.5625 -2.53125 L 2.609375 -2.765625 C 1.890625 -2.953125 1.367188 -3.207031 1.046875 -3.53125 C 0.734375 -3.863281 0.578125 -4.3125 0.578125 -4.875 C 0.578125 -5.625 0.835938 -6.179688 1.359375 -6.546875 C 1.878906 -6.921875 2.679688 -7.109375 3.765625 -7.109375 C 4.171875 -7.109375 4.601562 -7.070312 5.0625 -7 C 5.53125 -6.9375 6.039062 -6.832031 6.59375 -6.6875 L 6.59375 -4.953125 L 5.859375 -4.953125 C 5.828125 -5.421875 5.660156 -5.773438 5.359375 -6.015625 C 5.054688 -6.253906 4.628906 -6.375 4.078125 -6.375 C 3.609375 -6.375 3.253906 -6.296875 3.015625 -6.140625 C 2.773438 -5.992188 2.65625 -5.78125 2.65625 -5.5 C 2.65625 -5.257812 2.722656 -5.070312 2.859375 -4.9375 C 3.003906 -4.800781 3.253906 -4.6875 3.609375 -4.59375 L 4.5625 -4.359375 C 5.46875 -4.128906 6.09375 -3.84375 6.4375 -3.5 C 6.78125 -3.164062 6.953125 -2.695312 6.953125 -2.09375 C 6.953125 -1.3125 6.671875 -0.734375 6.109375 -0.359375 C 5.554688 0.00390625 4.691406 0.1875 3.515625 0.1875 C 3.085938 0.1875 2.632812 0.15625 2.15625 0.09375 C 1.675781 0.03125 1.164062 -0.0664062 0.625 -0.203125 Z "/>
</symbol>
<symbol overflow="visible" id="glyph0-9">
<path style="stroke:none;" d=""/>
</symbol>
<symbol overflow="visible" id="glyph0-10">
<path style="stroke:none;" d="M 0.5625 0 L 0.5625 -0.78125 L 1.796875 -0.78125 L 1.796875 -8.921875 L 0.5625 -8.921875 L 0.5625 -9.71875 L 4.5625 -9.71875 L 7.34375 -3.484375 L 10.125 -9.71875 L 14.125 -9.71875 L 14.125 -8.921875 L 12.890625 -8.921875 L 12.890625 -0.78125 L 14.125 -0.78125 L 14.125 0 L 9.125 0 L 9.125 -0.78125 L 10.359375 -0.78125 L 10.359375 -8.203125 L 7.359375 -1.421875 L 5.703125 -1.421875 L 2.703125 -8.203125 L 2.703125 -0.78125 L 3.9375 -0.78125 L 3.9375 0 Z "/>
</symbol>
<symbol overflow="visible" id="glyph0-11">
<path style="stroke:none;" d="M 9.9375 -2.765625 C 9.675781 -1.765625 9.210938 -1.019531 8.546875 -0.53125 C 7.890625 -0.0507812 7 0.1875 5.875 0.1875 C 4.238281 0.1875 2.941406 -0.265625 1.984375 -1.171875 C 1.035156 -2.078125 0.5625 -3.300781 0.5625 -4.84375 C 0.5625 -6.394531 1.035156 -7.625 1.984375 -8.53125 C 2.941406 -9.4375 4.238281 -9.890625 5.875 -9.890625 C 6.445312 -9.890625 7.046875 -9.816406 7.671875 -9.671875 C 8.296875 -9.535156 8.960938 -9.328125 9.671875 -9.046875 L 9.671875 -6.671875 L 8.84375 -6.671875 C 8.664062 -7.484375 8.351562 -8.09375 7.90625 -8.5 C 7.46875 -8.90625 6.878906 -9.109375 6.140625 -9.109375 C 5.191406 -9.109375 4.488281 -8.757812 4.03125 -8.0625 C 3.570312 -7.363281 3.34375 -6.289062 3.34375 -4.84375 C 3.34375 -3.40625 3.570312 -2.335938 4.03125 -1.640625 C 4.488281 -0.941406 5.195312 -0.59375 6.15625 -0.59375 C 6.800781 -0.59375 7.328125 -0.769531 7.734375 -1.125 C 8.148438 -1.488281 8.453125 -2.035156 8.640625 -2.765625 Z "/>
</symbol>
<symbol overflow="visible" id="glyph0-12">
<path style="stroke:none;" d="M 1.03125 -0.46875 L 1.03125 -2.765625 L 1.859375 -2.765625 C 1.984375 -2.035156 2.28125 -1.488281 2.75 -1.125 C 3.21875 -0.769531 3.863281 -0.59375 4.6875 -0.59375 C 5.363281 -0.59375 5.875 -0.71875 6.21875 -0.96875 C 6.570312 -1.226562 6.75 -1.609375 6.75 -2.109375 C 6.75 -2.492188 6.628906 -2.796875 6.390625 -3.015625 C 6.160156 -3.234375 5.671875 -3.4375 4.921875 -3.625 L 3.46875 -3.984375 C 2.507812 -4.222656 1.835938 -4.554688 1.453125 -4.984375 C 1.066406 -5.421875 0.875 -6.039062 0.875 -6.84375 C 0.875 -7.800781 1.191406 -8.546875 1.828125 -9.078125 C 2.472656 -9.617188 3.375 -9.890625 4.53125 -9.890625 C 5.09375 -9.890625 5.679688 -9.84375 6.296875 -9.75 C 6.910156 -9.65625 7.550781 -9.507812 8.21875 -9.3125 L 8.21875 -7.171875 L 7.390625 -7.171875 C 7.265625 -7.835938 6.988281 -8.328125 6.5625 -8.640625 C 6.132812 -8.953125 5.53125 -9.109375 4.75 -9.109375 C 4.101562 -9.109375 3.613281 -8.992188 3.28125 -8.765625 C 2.957031 -8.546875 2.796875 -8.210938 2.796875 -7.765625 C 2.796875 -7.367188 2.90625 -7.0625 3.125 -6.84375 C 3.351562 -6.632812 3.910156 -6.421875 4.796875 -6.203125 L 6.25 -5.84375 C 7.15625 -5.613281 7.8125 -5.257812 8.21875 -4.78125 C 8.625 -4.300781 8.828125 -3.644531 8.828125 -2.8125 C 8.828125 -1.832031 8.488281 -1.085938 7.8125 -0.578125 C 7.132812 -0.0664062 6.140625 0.1875 4.828125 0.1875 C 4.191406 0.1875 3.5625 0.128906 2.9375 0.015625 C 2.3125 -0.0859375 1.675781 -0.25 1.03125 -0.46875 Z "/>
</symbol>
<symbol overflow="visible" id="glyph0-13">
<path style="stroke:none;" d="M 2.96875 0 L 0.515625 -6.125 L -0.234375 -6.125 L -0.234375 -6.921875 L 3.734375 -6.921875 L 3.734375 -6.125 L 2.890625 -6.125 L 4.640625 -1.75 L 6.390625 -6.125 L 5.484375 -6.125 L 5.484375 -6.921875 L 8.078125 -6.921875 L 8.078125 -6.125 L 7.28125 -6.125 L 4.828125 0 Z "/>
</symbol>
<symbol overflow="visible" id="glyph0-14">
<path style="stroke:none;" d="M 2.421875 0 L 2.421875 -0.78125 L 3.703125 -0.78125 L 3.703125 -8.828125 L 1.046875 -8.828125 L 1.046875 -7.28125 L 0.15625 -7.28125 L 0.15625 -9.71875 L 9.78125 -9.71875 L 9.78125 -7.28125 L 8.90625 -7.28125 L 8.90625 -8.828125 L 6.21875 -8.828125 L 6.21875 -0.78125 L 7.515625 -0.78125 L 7.515625 0 Z "/>
</symbol>
<symbol overflow="visible" id="glyph0-15">
<path style="stroke:none;" d="M 0.453125 0 L 0.453125 -0.78125 L 1.4375 -0.78125 L 1.4375 -9.34375 L 0.40625 -9.34375 L 0.40625 -10.125 L 3.734375 -10.125 L 3.734375 -5.9375 C 4.015625 -6.351562 4.332031 -6.648438 4.6875 -6.828125 C 5.039062 -7.015625 5.492188 -7.109375 6.046875 -7.109375 C 6.816406 -7.109375 7.398438 -6.878906 7.796875 -6.421875 C 8.191406 -5.960938 8.390625 -5.289062 8.390625 -4.40625 L 8.390625 -0.78125 L 9.390625 -0.78125 L 9.390625 0 L 5.25 0 L 5.25 -0.78125 L 6.09375 -0.78125 L 6.09375 -4.46875 C 6.09375 -5.050781 6.015625 -5.457031 5.859375 -5.6875 C 5.710938 -5.914062 5.457031 -6.03125 5.09375 -6.03125 C 4.625 -6.03125 4.28125 -5.859375 4.0625 -5.515625 C 3.84375 -5.171875 3.734375 -4.628906 3.734375 -3.890625 L 3.734375 -0.78125 L 4.59375 -0.78125 L 4.59375 0 Z "/>
</symbol>
<symbol overflow="visible" id="glyph0-16">
<path style="stroke:none;" d="M 7.34375 -4.25 L 7.34375 -0.78125 L 8.328125 -0.78125 L 8.328125 0 L 5.03125 0 L 5.03125 -0.875 C 4.726562 -0.507812 4.390625 -0.238281 4.015625 -0.0625 C 3.648438 0.101562 3.226562 0.1875 2.75 0.1875 C 2.039062 0.1875 1.492188 0 1.109375 -0.375 C 0.734375 -0.757812 0.546875 -1.304688 0.546875 -2.015625 C 0.546875 -2.785156 0.816406 -3.363281 1.359375 -3.75 C 1.910156 -4.132812 2.734375 -4.328125 3.828125 -4.328125 L 5.03125 -4.328125 L 5.03125 -4.75 C 5.03125 -5.300781 4.898438 -5.710938 4.640625 -5.984375 C 4.378906 -6.253906 3.96875 -6.390625 3.40625 -6.390625 C 2.945312 -6.390625 2.59375 -6.289062 2.34375 -6.09375 C 2.09375 -5.90625 1.914062 -5.597656 1.8125 -5.171875 L 1.078125 -5.171875 L 1.078125 -6.671875 C 1.492188 -6.816406 1.921875 -6.925781 2.359375 -7 C 2.804688 -7.070312 3.273438 -7.109375 3.765625 -7.109375 C 4.992188 -7.109375 5.894531 -6.878906 6.46875 -6.421875 C 7.050781 -5.960938 7.34375 -5.238281 7.34375 -4.25 Z M 5.03125 -2.171875 L 5.03125 -3.5625 L 4.171875 -3.5625 C 3.742188 -3.5625 3.414062 -3.441406 3.1875 -3.203125 C 2.957031 -2.972656 2.84375 -2.640625 2.84375 -2.203125 C 2.84375 -1.765625 2.925781 -1.4375 3.09375 -1.21875 C 3.257812 -1 3.515625 -0.890625 3.859375 -0.890625 C 4.210938 -0.890625 4.492188 -1.003906 4.703125 -1.234375 C 4.921875 -1.472656 5.03125 -1.785156 5.03125 -2.171875 Z "/>
</symbol>
<symbol overflow="visible" id="glyph0-17">
<path style="stroke:none;" d="M 1.328125 -6.125 L 0.3125 -6.125 L 0.3125 -6.921875 L 1.328125 -6.921875 L 1.328125 -9.0625 L 3.625 -9.0625 L 3.625 -6.921875 L 5.546875 -6.921875 L 5.546875 -6.125 L 3.625 -6.125 L 3.625 -1.890625 C 3.625 -1.285156 3.671875 -0.910156 3.765625 -0.765625 C 3.859375 -0.617188 4.03125 -0.546875 4.28125 -0.546875 C 4.5625 -0.546875 4.769531 -0.640625 4.90625 -0.828125 C 5.039062 -1.015625 5.113281 -1.300781 5.125 -1.6875 L 6.09375 -1.6875 C 6.050781 -1 5.859375 -0.515625 5.515625 -0.234375 C 5.179688 0.046875 4.597656 0.1875 3.765625 0.1875 C 2.816406 0.1875 2.171875 0.0390625 1.828125 -0.25 C 1.492188 -0.550781 1.328125 -1.097656 1.328125 -1.890625 Z "/>
</symbol>
<symbol overflow="visible" id="glyph0-18">
<path style="stroke:none;" d="M 0.625 0 L 0.625 -0.78125 L 1.875 -0.78125 L 1.875 -8.921875 L 0.625 -8.921875 L 0.625 -9.71875 L 5.625 -9.71875 L 5.625 -8.921875 L 4.375 -8.921875 L 4.375 -0.890625 L 8.203125 -0.890625 L 8.203125 -2.421875 L 9.078125 -2.421875 L 9.078125 0 Z "/>
</symbol>
<symbol overflow="visible" id="glyph0-19">
<path style="stroke:none;" d="M 0.625 0 L 0.625 -0.78125 L 1.875 -0.78125 L 1.875 -8.921875 L 0.625 -8.921875 L 0.625 -9.71875 L 5.625 -9.71875 L 5.625 -8.921875 L 4.375 -8.921875 L 4.375 -0.78125 L 5.625 -0.78125 L 5.625 0 Z "/>
</symbol>
<symbol overflow="visible" id="glyph0-20">
<path style="stroke:none;" d="M 0.453125 0 L 0.453125 -0.78125 L 1.4375 -0.78125 L 1.4375 -6.125 L 0.453125 -6.125 L 0.453125 -6.921875 L 3.734375 -6.921875 L 3.734375 -5.9375 C 4.015625 -6.351562 4.332031 -6.648438 4.6875 -6.828125 C 5.039062 -7.015625 5.492188 -7.109375 6.046875 -7.109375 C 6.816406 -7.109375 7.398438 -6.878906 7.796875 -6.421875 C 8.191406 -5.960938 8.390625 -5.289062 8.390625 -4.40625 L 8.390625 -0.78125 L 9.390625 -0.78125 L 9.390625 0 L 5.25 0 L 5.25 -0.78125 L 6.09375 -0.78125 L 6.09375 -4.46875 C 6.09375 -5.050781 6.015625 -5.457031 5.859375 -5.6875 C 5.710938 -5.914062 5.457031 -6.03125 5.09375 -6.03125 C 4.625 -6.03125 4.28125 -5.859375 4.0625 -5.515625 C 3.84375 -5.171875 3.734375 -4.628906 3.734375 -3.890625 L 3.734375 -0.78125 L 4.59375 -0.78125 L 4.59375 0 Z "/>
</symbol>
</g>
</defs>
<g id="surface434">
<g style="fill:rgb(75.686275%,37.254902%,23.529412%);fill-opacity:1;">
  <use xlink:href="#glyph0-1" x="30" y="32.519531"/>
  <use xlink:href="#glyph0-2" x="40" y="32.519531"/>
  <use xlink:href="#glyph0-3" x="47" y="32.519531"/>
  <use xlink:href="#glyph0-4" x="56" y="32.519531"/>
  <use xlink:href="#glyph0-5" x="65" y="32.519531"/>
  <use xlink:href="#glyph0-6" x="70" y="32.519531"/>
  <use xlink:href="#glyph0-7" x="78" y="32.519531"/>
  <use xlink:href="#glyph0-8" x="92" y="32.519531"/>
  <use xlink:href="#glyph0-9" x="100" y="32.519531"/>
  <use xlink:href="#glyph0-10" x="105" y="32.519531"/>
  <use xlink:href="#glyph0-11" x="120" y="32.519531"/>
  <use xlink:href="#glyph0-1" x="131" y="32.519531"/>
  <use xlink:href="#glyph0-9" x="141" y="32.519531"/>
  <use xlink:href="#glyph0-12" x="146" y="32.519531"/>
  <use xlink:href="#glyph0-3" x="156" y="32.519531"/>
  <use xlink:href="#glyph0-5" x="165" y="32.519531"/>
  <use xlink:href="#glyph0-13" x="170" y="32.519531"/>
  <use xlink:href="#glyph0-6" x="178" y="32.519531"/>
  <use xlink:href="#glyph0-8" x="186" y="32.519531"/>
  <use xlink:href="#glyph0-9" x="194" y="32.519531"/>
  <use xlink:href="#glyph0-14" x="199" y="32.519531"/>
  <use xlink:href="#glyph0-15" x="209" y="32.519531"/>
  <use xlink:href="#glyph0-16" x="219" y="32.519531"/>
  <use xlink:href="#glyph0-17" x="228" y="32.519531"/>
  <use xlink:href="#glyph0-9" x="234" y="32.519531"/>
  <use xlink:href="#glyph0-11" x="239" y="32.519531"/>
  <use xlink:href="#glyph0-18" x="250" y="32.519531"/>
  <use xlink:href="#glyph0-19" x="259" y="32.519531"/>
  <use xlink:href="#glyph0-9" x="265" y="32.519531"/>
  <use xlink:href="#glyph0-11" x="270" y="32.519531"/>
  <use xlink:href="#glyph0-16" x="281" y="32.519531"/>
  <use xlink:href="#glyph0-20" x="290" y="32.519531"/>
  <use xlink:href="#glyph0-20" x="300" y="32.519531"/>
  <use xlink:href="#glyph0-3" x="310" y="32.519531"/>
  <use xlink:href="#glyph0-17" x="319" y="32.519531"/>
</g>
</g>
</svg>
