<?xml version="1.0" encoding="UTF-8"?>
<svg xmlns="http://www.w3.org/2000/svg" xmlns:xlink="http://www.w3.org/1999/xlink" width="3840pt" height="2160pt" viewBox="0 0 3840 2160" version="1.1">
<defs>
<g>
<symbol overflow="visible" id="glyph0-0">
<path style="stroke:none;" d="M 0.65625 2.359375 L 0.65625 -9.390625 L 7.328125 -9.390625 L 7.328125 2.359375 Z M 1.40625 1.609375 L 6.59375 1.609375 L 6.59375 -8.65625 L 1.40625 -8.65625 Z "/>
</symbol>
<symbol overflow="visible" id="glyph0-1">
<path style="stroke:none;" d=""/>
</symbol>
<symbol overflow="visible" id="glyph0-2">
<path style="stroke:none;" d="M 0.625 0 L 0.625 -0.78125 L 1.875 -0.78125 L 1.875 -8.921875 L 0.625 -8.921875 L 0.625 -9.71875 L 5.625 -9.71875 L 5.625 -8.921875 L 4.375 -8.921875 L 4.375 -5.65625 L 8.234375 -5.65625 L 8.234375 -8.921875 L 7 -8.921875 L 7 -9.71875 L 12 -9.71875 L 12 -8.921875 L 10.75 -8.921875 L 10.75 -0.78125 L 12 -0.78125 L 12 0 L 7 0 L 7 -0.78125 L 8.234375 -0.78125 L 8.234375 -4.765625 L 4.375 -4.765625 L 4.375 -0.78125 L 5.625 -0.78125 L 5.625 0 Z "/>
</symbol>
<symbol overflow="visible" id="glyph0-3">
<path style="stroke:none;" d="M 2.421875 0 L 2.421875 -0.78125 L 3.703125 -0.78125 L 3.703125 -8.828125 L 1.046875 -8.828125 L 1.046875 -7.28125 L 0.15625 -7.28125 L 0.15625 -9.71875 L 9.78125 -9.71875 L 9.78125 -7.28125 L 8.90625 -7.28125 L 8.90625 -8.828125 L 6.21875 -8.828125 L 6.21875 -0.78125 L 7.515625 -0.78125 L 7.515625 0 Z "/>
</symbol>
<symbol overflow="visible" id="glyph0-4">
<path style="stroke:none;" d="M 0.625 0 L 0.625 -0.78125 L 1.875 -0.78125 L 1.875 -8.921875 L 0.625 -8.921875 L 0.625 -9.71875 L 6.15625 -9.71875 C 7.238281 -9.71875 8.097656 -9.457031 8.734375 -8.9375 C 9.367188 -8.425781 9.6875 -7.738281 9.6875 -6.875 C 9.6875 -6.007812 9.363281 -5.316406 8.71875 -4.796875 C 8.082031 -4.273438 7.226562 -4.015625 6.15625 -4.015625 L 4.375 -4.015625 L 4.375 -0.78125 L 5.9375 -0.78125 L 5.9375 0 Z M 4.375 -4.8125 L 5.109375 -4.8125 C 5.671875 -4.8125 6.117188 -5 6.453125 -5.375 C 6.785156 -5.75 6.953125 -6.25 6.953125 -6.875 C 6.953125 -7.5 6.785156 -7.992188 6.453125 -8.359375 C 6.117188 -8.734375 5.671875 -8.921875 5.109375 -8.921875 L 4.375 -8.921875 Z "/>
</symbol>
<symbol overflow="visible" id="glyph0-5">
<path style="stroke:none;" d="M 0.71875 -4.453125 L 4.8125 -4.453125 L 4.8125 -2.6875 L 0.71875 -2.6875 Z "/>
</symbol>
<symbol overflow="visible" id="glyph0-6">
<path style="stroke:none;" d="M 4.453125 -0.546875 C 4.941406 -0.546875 5.28125 -0.753906 5.46875 -1.171875 C 5.664062 -1.585938 5.765625 -2.351562 5.765625 -3.46875 C 5.765625 -4.570312 5.664062 -5.332031 5.46875 -5.75 C 5.28125 -6.164062 4.941406 -6.375 4.453125 -6.375 C 3.960938 -6.375 3.617188 -6.160156 3.421875 -5.734375 C 3.222656 -5.316406 3.125 -4.5625 3.125 -3.46875 C 3.125 -2.363281 3.222656 -1.597656 3.421875 -1.171875 C 3.617188 -0.753906 3.960938 -0.546875 4.453125 -0.546875 Z M 4.453125 0.1875 C 3.234375 0.1875 2.273438 -0.132812 1.578125 -0.78125 C 0.890625 -1.425781 0.546875 -2.320312 0.546875 -3.46875 C 0.546875 -4.601562 0.890625 -5.492188 1.578125 -6.140625 C 2.273438 -6.785156 3.234375 -7.109375 4.453125 -7.109375 C 5.671875 -7.109375 6.625 -6.785156 7.3125 -6.140625 C 8.007812 -5.492188 8.359375 -4.601562 8.359375 -3.46875 C 8.359375 -2.320312 8.007812 -1.425781 7.3125 -0.78125 C 6.625 -0.132812 5.671875 0.1875 4.453125 0.1875 Z "/>
</symbol>
<symbol overflow="visible" id="glyph0-7">
<path style="stroke:none;" d="M 0.453125 0 L 0.453125 -0.78125 L 1.4375 -0.78125 L 1.4375 -6.125 L 0.453125 -6.125 L 0.453125 -6.921875 L 3.734375 -6.921875 L 3.734375 -5.9375 C 4.015625 -6.351562 4.332031 -6.648438 4.6875 -6.828125 C 5.039062 -7.015625 5.492188 -7.109375 6.046875 -7.109375 C 6.816406 -7.109375 7.398438 -6.878906 7.796875 -6.421875 C 8.191406 -5.960938 8.390625 -5.289062 8.390625 -4.40625 L 8.390625 -0.78125 L 9.390625 -0.78125 L 9.390625 0 L 5.25 0 L 5.25 -0.78125 L 6.09375 -0.78125 L 6.09375 -4.46875 C 6.09375 -5.050781 6.015625 -5.457031 5.859375 -5.6875 C 5.710938 -5.914062 5.457031 -6.03125 5.09375 -6.03125 C 4.625 -6.03125 4.28125 -5.859375 4.0625 -5.515625 C 3.84375 -5.171875 3.734375 -4.628906 3.734375 -3.890625 L 3.734375 -0.78125 L 4.59375 -0.78125 L 4.59375 0 Z "/>
</symbol>
<symbol overflow="visible" id="glyph0-8">
<path style="stroke:none;" d="M 3.734375 -0.78125 L 4.734375 -0.78125 L 4.734375 0 L 0.453125 0 L 0.453125 -0.78125 L 1.4375 -0.78125 L 1.4375 -9.34375 L 0.453125 -9.34375 L 0.453125 -10.125 L 3.734375 -10.125 Z "/>
</symbol>
<symbol overflow="visible" id="glyph0-9">
<path style="stroke:none;" d="M 4.15625 1.5625 C 3.945312 2.070312 3.695312 2.429688 3.40625 2.640625 C 3.113281 2.859375 2.71875 2.96875 2.21875 2.96875 C 2 2.96875 1.757812 2.941406 1.5 2.890625 C 1.238281 2.835938 0.957031 2.769531 0.65625 2.6875 L 0.65625 1.234375 L 1.390625 1.25 C 1.398438 1.582031 1.476562 1.828125 1.625 1.984375 C 1.769531 2.140625 1.988281 2.21875 2.28125 2.21875 C 2.5625 2.21875 2.785156 2.140625 2.953125 1.984375 C 3.128906 1.835938 3.304688 1.550781 3.484375 1.125 L 3.578125 0.875 L 0.578125 -6.125 L -0.171875 -6.125 L -0.171875 -6.921875 L 3.8125 -6.921875 L 3.8125 -6.125 L 2.984375 -6.125 L 4.75 -2.03125 L 6.390625 -6.125 L 5.46875 -6.125 L 5.46875 -6.921875 L 8.0625 -6.921875 L 8.0625 -6.125 L 7.21875 -6.125 Z "/>
</symbol>
<symbol overflow="visible" id="glyph0-10">
<path style="stroke:none;" d="M -0.109375 0 L -0.109375 -0.78125 L 0.6875 -0.78125 L 4.34375 -9.71875 L 5.90625 -9.71875 L 9.5625 -0.78125 L 10.484375 -0.78125 L 10.484375 0 L 5.9375 0 L 5.9375 -0.78125 L 6.890625 -0.78125 L 6.09375 -2.765625 L 2.4375 -2.765625 L 1.625 -0.78125 L 2.78125 -0.78125 L 2.78125 0 Z M 2.765625 -3.5625 L 5.765625 -3.5625 L 4.28125 -7.28125 Z "/>
</symbol>
<symbol overflow="visible" id="glyph0-11">
<path style="stroke:none;" d="M 0.625 0 L 0.625 -0.78125 L 1.875 -0.78125 L 1.875 -8.921875 L 0.625 -8.921875 L 0.625 -9.71875 L 5.625 -9.71875 L 5.625 -8.921875 L 4.375 -8.921875 L 4.375 -0.78125 L 5.625 -0.78125 L 5.625 0 Z "/>
</symbol>
</g>
</defs>
<g id="surface514">
<g style="fill:rgb(75.686275%,37.254902%,23.529412%);fill-opacity:1;">
  <use xlink:href="#glyph0-1" x="30" y="32.519531"/>
  <use xlink:href="#glyph0-1" x="35" y="32.519531"/>
  <use xlink:href="#glyph0-2" x="40" y="32.519531"/>
  <use xlink:href="#glyph0-3" x="53" y="32.519531"/>
  <use xlink:href="#glyph0-3" x="62" y="32.519531"/>
  <use xlink:href="#glyph0-4" x="72" y="32.519531"/>
  <use xlink:href="#glyph0-5" x="81" y="32.519531"/>
  <use xlink:href="#glyph0-6" x="87" y="32.519531"/>
  <use xlink:href="#glyph0-7" x="96" y="32.519531"/>
  <use xlink:href="#glyph0-8" x="106" y="32.519531"/>
  <use xlink:href="#glyph0-9" x="111" y="32.519531"/>
  <use xlink:href="#glyph0-1" x="119" y="32.519531"/>
  <use xlink:href="#glyph0-10" x="124" y="32.519531"/>
  <use xlink:href="#glyph0-4" x="134" y="32.519531"/>
  <use xlink:href="#glyph0-11" x="144" y="32.519531"/>
</g>
</g>
</svg>
